# xmcd CD database file
#
# Track frame offsets:
#	183
#	1370
#	15933
#	33445
#	61933
#	78128
#	82603
#	102583
#	118795
#	134245
#	149470
#	162270
#	174250
#
# Disc length: 2552 seconds
#
# Revision: 2
# Processed by: cddbd v1.5.2PL0 Copyright (c) Steve Scherf et al.
# Submitted via: CDex 1.51
#
DISCID=9b09f60d
DTITLE=Darrell Mansfield - The Lord's House - A Tribute to Reverend Dan Smith
DYEAR=1995
DGENRE=Blues
TTITLE0=Rev. Dan Speaks
TTITLE1=God's Radar
TTITLE2=Twelve Gates to the City
TTITLE3=This is the Lord's House
TTITLE4=Stand By Me
TTITLE5=Rev. Dan Speaks
TTITLE6=I've Never Been to Seminary
TTITLE7=It Takes God to Build a Home
TTITLE8=This is the Lord's House
TTITLE9=Great Change Since I've Been Born
TTITLE10=At the Table with the Lord
TTITLE11=Down Through the Years
TTITLE12=Everyday Will be Sunday on the Other Side
EXTD=YEAR: 1995
EXTT0=
EXTT1=
EXTT2=
EXTT3=
EXTT4=
EXTT5=
EXTT6=
EXTT7=
EXTT8=
EXTT9=
EXTT10=
EXTT11=
EXTT12=
PLAYORDER=
